<?xml version="1.0" encoding="UTF-8"?>
<svg id="Layer_2" data-name="Layer 2" xmlns="http://www.w3.org/2000/svg" viewBox="0 0 395.68 349.7">
  <g id="Layer_1-2" data-name="Layer 1">
    <g>
      <path d="m336.83,232.36v-7.64h-30.54v7.64h10.98v49.13h-10.98v7.64h30.54v-7.64h-10.99v-49.13h10.99Zm0,0v-7.64h-30.54v7.64h10.98v49.13h-10.98v7.64h30.54v-7.64h-10.99v-49.13h10.99Zm0,0v-7.64h-30.54v7.64h10.98v49.13h-10.98v7.64h30.54v-7.64h-10.99v-49.13h10.99Zm0,0v-7.64h-30.54v7.64h10.98v49.13h-10.98v7.64h30.54v-7.64h-10.99v-49.13h10.99Zm0,0v-7.64h-30.54v7.64h10.98v49.13h-10.98v7.64h30.54v-7.64h-10.99v-49.13h10.99Zm0,0v-7.64h-30.54v7.64h10.98v49.13h-10.98v7.64h30.54v-7.64h-10.99v-49.13h10.99Zm0,0v-7.64h-30.54v7.64h10.98v49.13h-10.98v7.64h30.54v-7.64h-10.99v-49.13h10.99Zm0,0v-7.64h-30.54v7.64h10.98v49.13h-10.98v7.64h30.54v-7.64h-10.99v-49.13h10.99Zm0,0v-7.64h-30.54v7.64h10.98v49.13h-10.98v7.64h30.54v-7.64h-10.99v-49.13h10.99Zm0,0v-7.64h-30.54v7.64h10.98v49.13h-10.98v7.64h30.54v-7.64h-10.99v-49.13h10.99Zm0,0v-7.64h-30.54v7.64h10.98v49.13h-10.98v7.64h30.54v-7.64h-10.99v-49.13h10.99Z"/>
      <path d="m395.64,241.09v-22.97c0-6.97-3.14-12.14-9.32-15.19-12.93-6.39-25.88-12.72-38.84-19.03-.18-9.05-.79-18.08-2.44-27.06-5.12-27.9-16-53.34-34.18-75.21-4.74-5.71-6.33-10.35-3.57-17.41,2.89-7.43-.92-15.82-7.69-20.07-6.64-4.17-15.17-3.65-21.07,1.81-2.29,2.11-3.69,1.76-5.93.22-12.05-8.32-25.14-14.61-39.04-19.19-2.13-.71-3.15-1.81-3.65-4.04C226.97,9.87,214.97.15,201.65.06c-14.46-.08-28.93-.08-43.4-.01-13.45.08-25.45,9.59-28.51,22.63-.58,2.47-1.75,3.64-4.16,4.44-13.88,4.63-26.9,11.08-39.01,19.29-2.13,1.44-3.31,1.5-5.29-.32-5.63-5.18-13.14-6.06-19.72-2.75-6.89,3.47-10.5,9.97-9.87,17.75.28,3.38,1.45,6.54,2.49,9.71.65,1.98.64,3.39-.85,5.05-7.77,8.65-14.37,18.15-20,28.32-11.46,20.7-18.39,42.79-20.5,66.41-1.17,13.08-.53,26.17-.62,39.26-.03,4.1.25,7.94-4.77,9.42-.86.26-1.52,1.25-2.23,1.96C.4,226.07-.34,232.12.16,237.46c0,2.45.17,3.84-.03,5.18-.72,4.85,1.61,7.62,5.75,9.71,8.01,4.04,16.18,7.71,24.57,10.82,38.05,14.15,77.59,20.97,117.95,23.39,30.91,1.85,61.77.97,92.55-2.74,3.14-.38,6.27-.79,9.39-1.23,4.8,17.45,14.28,32,28.77,43.23,10.48,8.12,22.33,14.17,33.54,21.19,6.01,3.75,12.15,3.48,18.17-.2,8.33-5.09,16.75-10.05,24.98-15.3,25.89-16.53,39.28-40.15,39.82-70.93.12-6.5.02-13,.02-19.49ZM160.69,11.98c6.49.01,12.97.01,19.46.01,6.36-.01,12.72-.03,19.08,0,13.6.05,21.34,9.67,19.38,23.13-1.85,12.66-2.95,25.43-4.36,38.16-1.3,11.74-2.53,23.48-3.86,35.22-1.39,12.23-2.88,24.45-4.31,36.67-1.02,8.7-5.63,14.5-14.23,15.93-8.2,1.36-16.66,1.43-24.87-.12-7.72-1.46-12.57-7.57-13.46-15.43-2.65-23.46-5.36-46.91-8.02-70.37-1.57-13.82-3.2-27.65-4.57-41.49-1.33-13.48,6.3-21.71,19.76-21.71Zm-94.37,42.42c2.35-1.51,4.71-1.24,6.95.42,1.4,1.05,1.92,2.6,2.38,4.13,9.37,31.28,18.7,62.56,28.03,93.84.32,1.06.51,2.17.66,2.83-.09,3.78-1.69,6-5,6.4-3.18.39-5.52-1.01-6.5-4.26-3.25-10.8-6.54-21.59-9.78-32.38-6.32-21.01-12.63-42.03-18.93-63.04-.92-3.09-.84-6,2.19-7.94Zm98.64,220.91c-40.3-1.16-79.9-6.96-118.39-19.36-10.88-3.51-21.49-7.74-31.87-12.58-2.01-.93-2.63-2.07-2.63-4.25.01-10.58.88-11.55,11.39-11.55,52.14-.01,104.29-.01,156.44-.01h67.52c0,10.77.02,21.55-.03,32.32-.01,3.65.17,7.28.6,10.88-27.5,4.01-55.19,5.36-83.03,4.55Zm94.49-113.4c-3.58-1.03-4.96-4.04-3.74-8.43,1.37-4.9,2.84-9.77,4.31-14.65,7.92-26.39,15.89-52.78,23.77-79.19.96-3.22,2.33-5.85,5.99-6.26,3.39-.38,6.15,2.4,6.18,6.55-.46,3.79-2.06,7.87-3.29,12.02-8.18,27.48-16.44,54.93-24.68,82.39-.29.95-.57,1.91-.91,2.85-1.49,4.06-4.18,5.71-7.63,4.72Zm119.59,100.01c-.61,23.43-10.91,41.72-30.49,54.59-8.27,5.43-16.86,10.36-25.26,15.58-1.26.79-2.18.79-3.45,0-8.89-5.54-17.99-10.75-26.72-16.53-13.22-8.76-21.91-20.74-26.34-35.61-.48-1.58-.9-3.19-1.28-4.84-.53-2.33-.92-4.68-1.18-7.04-.25-2.33-.37-4.68-.36-7.05.03-6.3.01-12.6.01-18.91h-.02c0-4.85.03-9.7.02-14.55-.01-2.55-.02-5.09-.06-7.64-.03-1.69.56-2.45,2.02-3.16.79-.38,1.58-.77,2.37-1.15,17.35-8.42,34.66-16.9,51.97-25.4.9-.44,1.58-.46,2.48,0,4.23,2.07,8.46,4.14,12.69,6.2,4.01,1.97,8.03,3.93,12.04,5.89,9.98,4.88,19.97,9.74,29.96,14.59,1.27.62,1.72,1.35,1.71,2.78-.06,14.08.25,28.18-.11,42.26Z"/>
    </g>
  </g>
</svg>