<?xml version="1.0" encoding="UTF-8"?>
<svg id="Layer_2" data-name="Layer 2" xmlns="http://www.w3.org/2000/svg" viewBox="0 0 243.37 243.15">
  <g id="Layer_1-2" data-name="Layer 1">
    <g>
      <g>
        <path d="m121.68,155.48c-7.32,0-14.64-.02-21.97.02-1.02,0-1.35-.26-1.32-1.31.08-2.73,0-5.47.05-8.2.02-.77-.27-1.2-.89-1.58-9.87-6.04-16.58-14.61-20.19-25.56-2.41-7.31-3.01-14.81-1.46-22.37,3.73-18.26,14.48-30.51,32.16-36.29,20.3-6.63,43.1,2.38,53.81,20.86,4.71,8.13,7.02,16.89,6.33,26.25-1.17,15.94-8.62,28.29-22.08,36.94-.87.56-1.17,1.1-1.14,2.09.07,2.64-.03,5.29.04,7.94.03,1-.25,1.24-1.24,1.24-7.37-.04-14.73-.02-22.1-.02Zm-1.08-21.62c-.36-.25-.24-.48-.23-.68.43-5.53.82-11.06,1.3-16.59.22-2.57-.51-3.46-3.12-3.46-4.23,0-8.47,0-12.7-.01-.4,0-.87.21-1.27-.29,6.1-9.66,12.21-19.33,18.31-29,.16,1.17.07,2.22,0,3.27-.17,2.33-.37,4.65-.49,6.98-.06,1.16.8,2.02,1.93,2.11,1.15.09,1.97-.59,2.17-1.81.09-.56.2-1.13.24-1.7.44-5.62.87-11.24,1.31-16.85.12-1.46-.34-2.41-1.46-2.78-1.3-.43-2.08.31-2.71,1.31-8.25,13.07-16.5,26.14-24.75,39.21-.53.85-1.01,1.69-.41,2.69.57.95,1.47,1.13,2.5,1.13,4.72-.02,9.44,0,14.16,0q1.95,0,1.81,1.92c0,.09-.02.18-.03.26-.6,7.55-1.18,15.1-1.79,22.64-.1,1.25.27,2.21,1.52,2.6,1.21.38,1.96-.24,2.6-1.24,8.29-13.15,16.6-26.29,24.9-39.43.48-.76.89-1.53.37-2.46-.55-.96-1.39-1.24-2.44-1.24-6,.02-11.99.01-17.99.02-1.65,0-2.6.79-2.61,2.14-.01,1.3.96,2.08,2.65,2.09,3.92,0,7.85,0,11.77,0,.9,0,1.8,0,2.92,0-6.24,9.88-12.34,19.53-18.45,29.19Z"/>
        <path d="m121.76,159.72c7.23,0,14.47.04,21.7-.03,1.32-.01,1.61.38,1.57,1.62-.09,2.86-.02,5.73-.03,8.6,0,1.72-.79,2.5-2.51,2.5-13.85,0-27.7.01-41.55,0-1.72,0-2.5-.79-2.51-2.5-.01-3,.05-6-.03-9-.03-1.03.32-1.21,1.26-1.21,7.37.04,14.73.02,22.1.02Z"/>
        <path d="m121.69,185.12c-4.01,0-8.02,0-12.03,0-1.81,0-2.25-.3-2.82-1.96-.64-1.87-1.2-3.76-1.88-5.62-.28-.78-.05-.89.65-.89,10.75.02,21.5.02,32.25,0,.79,0,.84.24.59.93-.69,1.9-1.31,3.81-1.92,5.74-.4,1.27-1.22,1.82-2.55,1.81-4.1-.03-8.2-.01-12.29-.01Z"/>
      </g>
      <path d="m206.78,34.6c0-3.97-.11-7.17.02-10.35.26-6.4,4.86-11.53,10.71-12.11,6.31-.62,11.55,2.97,13.37,9.1.31,1.04.32,2.06.32,3.09,0,16.25.01,32.49-.01,48.74,0,6.62-5.24,11.96-11.89,11.98-.11,0-5.59.07-37.81,0-7.1-.01-7.11-5.21-7.17-11.93-.06-6.97,5.2-12.36,12.38-12.46,6.84-.1-2.38-.01,4.46-.01,1.67,0,3.34,0,5.61,0-4.24-6.17-9.18-10.68-14.39-14.88-17.71-14.22-38.03-21.42-60.68-21.46-46.8-.08-87.02,33.59-95.63,79.73-7.49,40.13,11.46,81,47.08,101.66,18.03,10.46,37.5,14.7,58.13,12.64,43.27-4.33,76.43-36.05,85.24-75.09,1.68-7.45,2.17-14.96,2.65-22.51.33-5.04,2.88-8.64,7.51-10.45,4.46-1.74,8.79-1.12,12.52,2.06,2.92,2.49,4.15,5.73,4.16,9.57.06,53.91-36.78,102.24-88.59,116.68-59.41,16.57-121.03-13.42-145.21-70.18C1.1,148.55-1.84,127.68,1.12,106.38,6.67,66.54,27.11,36.28,61.83,15.82c12.6-7.43,26.23-12.33,40.65-14.38,38.14-5.43,71.84,4.55,100.81,30.11.96.85,1.92,1.69,3.48,3.05Z"/>
    </g>
  </g>
</svg>