<?xml version="1.0" encoding="UTF-8"?>
<svg id="Layer_2" data-name="Layer 2" xmlns="http://www.w3.org/2000/svg" viewBox="0 0 405.69 175.57">
  <g id="Layer_1-2" data-name="Layer 1">
    <g>
      <path d="m74.28,27.13c-4.08-.05-8.16.03-12.23-.04-4.88-.08-8.08-2.8-8.08-6.74,0-3.96,3.19-6.7,8.04-6.77,5.34-.07,10.69-.03,16.03-.03,9.95,0,9.8,0,9.75-9.9-.02-3.16-1.24-3.66-3.96-3.61-7.73.14-15.47.01-23.2.07-11.19.08-20.09,8.98-20.13,20.05-.03,11.32,8.86,20.3,20.22,20.39,4.5.03,9.01-.13,13.5.07,3.92.17,6.8,3.25,6.76,6.76-.04,3.52-2.95,6.41-6.84,6.72-.98.08-1.97.01-2.95.01-16.87,0-33.75-.03-50.62,0C9,54.14.04,62.89,0,74.14c-.04,11.47,8.91,20.38,20.62,20.42,13.08.04,26.16-.03,39.23.04,4.54.02,7.66,2.92,7.63,6.75-.02,3.86-3.13,6.69-7.62,6.78-4.22.08-8.44,0-12.66.02-11.23.08-20.16,8.92-20.2,19.97-.04,11.35,8.82,20.39,20.15,20.45,10.27.06,20.53.02,30.8.02,9.96,0,9.83,0,9.83-9.8,0-3-.93-3.76-3.82-3.72-11.95.15-23.91.12-35.86.03-4.6-.03-7.65-2.87-7.64-6.72,0-3.85,3.08-6.65,7.6-6.77,3.94-.1,7.87-.03,11.81-.05,11.96-.05,21.08-8.69,21.09-19.97.01-11.72-8.92-20.43-21.03-20.46-12.66-.03-25.31.01-37.97-.02-5.26-.01-8.51-2.65-8.51-6.72,0-4.09,3.27-6.77,8.44-6.8,8.72-.04,17.44-.01,26.16-.01v-.02c8.72,0,17.44.05,26.16-.01,11.22-.08,20.25-9.02,20.26-19.96,0-11.36-8.83-20.33-20.19-20.46Z"/>
      <path d="m399.64,87.94h-8.17c-.3-.41-.55-.82-.89-1.16-16.06-16.11-32.07-32.28-48.24-48.29-5.91-5.85-13.11-9.36-21.43-10.76-1.24-.21-2.48-.34-3.72-.43l-33.73-.19c-.01-.89-.02-1.79-.03-2.68-.22-16.94-7.85-24.32-24.59-24.32h-70.88C162.8.11,137.63.21,112.46,0c-3.83-.03-4.72,1.03-4.54,4.65.31,6.17.09,12.37.09,18.56,0,40.36.05,80.72-.08,121.08-.01,3.55.93,4.53,4.42,4.37,6.46-.28,12.94-.02,19.4-.1,2.12-.03,3.1.33,3.4,2.89,1.66,13.92,12.9,24.04,26.4,24.11,13.95.07,25.43-9.77,27.26-23.69.32-2.42.79-3.36,3.41-3.36,39.39.08,78.77.08,118.16.04h0s4.38.01,4.38.01c1.79.11,2.41.78,2.68,2.97,1.7,13.9,12.95,23.96,26.49,24.02,13.94.06,25.42-9.79,27.12-23.78.31-2.5,1.17-3.09,2.77-3.21h23.05c1.57.01,3.14.03,4.7.06.48.01.91-.01,1.28-.06h2.83v-54.59c0-3.34-2.71-6.05-6.05-6.05Zm-224.71-41.99c.74-.73,1.65-1.4,3.22-.67.73.37,1.83,1.35,2.37,1.9l24.2,24.39c.48.48,1.51,1.65,1.88,2.39.72,1.59-.12,2.7-.68,3.25-.54.55-1.63,1.4-3.22.66-.73-.36-1.88-1.39-2.38-1.89l-24.19-24.4c-.55-.55-1.52-1.65-1.88-2.39-.73-1.59-.07-2.51.67-3.25Zm-11.65,5.15c.23,3.95,2.35,6.8,4.66,9.14l23.83,24.03c2.55,2.58,5.71,4.9,10.27,4.73,2.55-.13,6.19-1.23,10.27-5.34,2.37-2.39,5.04-5.94,5.29-10.36.3-4.84-2.01-7.66-4.68-10.35l-23.84-24.01c-2.49-2.53-5.1-4.73-9.36-4.75,3.74-1.62,7.87-2.53,12.2-2.53,17.07,0,30.9,13.95,30.9,31.16s-13.84,31.16-30.9,31.16-30.91-13.95-30.91-31.16c0-4.15.81-8.1,2.26-11.71Zm11.64,100.99c-1.72,5.95-7.25,10.26-13.37,10.05-6.13-.22-11.46-4.91-12.76-10.88-.5-2.29.37-2.7,2.28-2.68,3.5.04,6.99.01,10.5.01v.05c3.64,0,7.28.12,10.91-.04,2.89-.12,3.17.94,2.44,3.49Zm27.56-39.14c-13.71.36-26.05-6.2-33.73-16.53,7.1,5.37,15.95,8.46,25.45,8.2,22.46-.59,40.29-19.54,39.71-42.18-.24-8.81-3.22-16.92-8.1-23.49,9.63,7.28,16.02,18.78,16.37,31.82.59,22.63-17.25,41.59-39.69,42.18Zm154.94,38.55c-1.53,6.02-6.88,10.57-12.99,10.66-6.21.09-11.5-4.23-13.17-10.34-.58-2.12-.33-3.05,1.37-3.23h2.54c3.03.05,6.06,0,9.1,0h.28v.03c3.51,0,7.02.07,10.52-.02,2.2-.06,2.97.45,2.35,2.91Zm.41-63.62h-3.87c-11.09,0-22.18-.09-33.26.07-2.81.04-3.53-.84-3.5-3.56.15-11.09.16-22.17.01-33.26-.04-3.19,1.05-3.61,3.71-2.57l38.01,36.6c1.02.99.32,2.72-1.1,2.72Z"/>
    </g>
  </g>
</svg>