<?xml version="1.0" encoding="UTF-8"?>
<svg id="Layer_2" data-name="Layer 2" xmlns="http://www.w3.org/2000/svg" viewBox="0 0 247.6 312.61">
  <g id="Layer_1-2" data-name="Layer 1">
    <g>
      <path d="m247.57,272.25c-1.67-16.02-13.73-29.29-29.56-32.24-2.03-.38-2.5-1.13-2.45-2.93.08-3.46.09-6.92,0-10.37-.15-5.02-2.76-7.6-7.84-7.69-4.78-.09-9.56-.08-14.34-.02-1.71.02-3.13-.46-4.56-1.38-11.69-7.55-23.41-15.06-35.1-22.58-2.81-1.8-2.77-1.79-.03-3.55,12.56-8.08,25.22-16.02,37.62-24.33,8.41-5.63,8.13-17.25-.29-22.8-8.32-5.47-16.74-10.79-25.1-16.19-4.81-3.11-9.61-6.24-14.86-9.65,12.8-8.23,25.09-16.12,37.36-24.04.95-.61,1.93-.51,2.94-.52,6.71,0,13.42.03,20.14-.02,4.55-.03,7.4-2.63,7.49-7.08.14-6.5.15-13.02,0-19.52-.11-4.49-2.66-6.89-7.1-7.08-2.23-.1-4.49-.22-6.71,0-2.55.26-3.25-.6-3.24-3.16.12-15.67-.07-31.33.15-46.99.07-4.47-.92-7.91-4.97-10.11H50.6c-4.04,2.28-5,5.81-4.94,10.27.2,15.67.03,31.33.14,47,.02,2.45-.69,3.25-3.12,2.98-2.01-.22-4.06-.1-6.1-.05-5.28.13-7.55,2.39-7.62,7.72-.07,6.1-.07,12.21-.02,18.31.05,5.15,2.62,7.69,7.72,7.72,7.43.03,14.86.06,22.28,0,1.81-.02,3.31.43,4.83,1.41,10.74,6.96,21.53,13.84,32.3,20.75,3.87,2.48,3.84,2.46-.19,5.04-12.14,7.8-24.38,15.44-36.36,23.47-8.51,5.72-8.12,17.42.46,22.97,12.45,8.05,24.91,16.09,37.42,24.04,2.19,1.39,2.15,1.95-.05,3.34-11.87,7.46-23.64,15.08-35.42,22.69-1.52.99-3.05,1.41-4.86,1.39-5.8-.08-11.6-.1-17.39.02-4.68.09-7.32,2.85-7.4,7.47-.05,3.46-.11,6.92,0,10.37.06,1.97-.52,2.74-2.63,3.14-19.68,3.72-33.1,23.81-28.87,42.99,3.49,15.81,15.15,26.93,31.56,29.25,13.47,1.91,28.37-4.39,36.3-18.52.95-1.7,2.03-2.17,3.82-2.14,6.81.07,13.63.02,20.45.02,27.26,0,54.53,0,81.79.02,1.64,0,3.13-.26,4.33,1.79,8.47,14.52,22.28,21.16,38.8,18.4,9.86-1.64,17.66-6.94,23.38-15.17,1.69-2.41,1.28-4.88-.87-6.44-1.97-1.44-4.39-1.1-6.25.91-.48.51-.86,1.13-1.3,1.69-6.83,8.87-18.75,12.61-29.78,9.35-10.33-3.03-18.33-12.81-19.32-23.59-1.12-12.09,5.96-23.72,17.17-28.19,11.3-4.52,24.15-1.02,31.8,8.57,3.47,4.36,5.06,9.4,5.98,14.77.45,2.61,2.77,4.23,5,3.86,2.45-.4,4.2-2.78,3.93-5.36Zm-109.75-178.07c-4.35,2.8-8.07,5.21-11.8,7.6-.47.3-.96.17-1.43-.12-3.6-2.32-7.21-4.65-10.81-6.96.07-.17.14-.34.2-.51h23.84Zm6.15-36.51c.05,1.84-.6,2.54-2.42,2.54-11.78-.02-23.55-.02-35.33.02-1.7,0-2.26-.66-2.22-2.39.11-4.36.1-8.73-.02-13.09-.06-2.05.78-2.58,2.7-2.54,5.78.1,11.57.03,17.36.03s11.37.06,17.05-.03c1.99-.03,2.98.38,2.89,2.68-.17,4.26-.12,8.52,0,12.79Zm11.65-48.56c11.68.08,23.35.06,35.03,0,1.71-.02,2.26.51,2.23,2.25-.09,6.6-.1,13.2.02,19.79.03,1.74-.64,1.97-2.12,1.96h-35.02c-1.81.03-2.73-.25-2.68-2.45.14-6.29.07-12.58-.02-18.88-.02-1.89.49-2.68,2.56-2.67Zm-.31,33.08c11.8.04,23.6.02,35.4-.05,1.81,0,2.2.77,2.17,2.41-.09,4.47-.12,8.95.02,13.42.05,1.76-.51,2.28-2.2,2.25l-34.78.04c-2.01.04-2.93-.38-2.84-2.67.18-4.36.1-8.75-.02-13.12-.04-1.72.51-2.28,2.25-2.28ZM107.08,9.1c11.37.11,22.74.09,34.11,0,2.07-.02,2.85.5,2.8,2.71-.14,6.29-.12,12.59,0,18.88.04,1.94-.69,2.42-2.45,2.4h-35.02c-1.97.03-2.59-.52-2.54-2.59.14-6.08.05-12.18-.06-18.27-.03-2.29.73-3.16,3.17-3.13Zm-49.84.02c5.9.07,11.79.03,17.7.03s11.39.05,17.09-.03c1.83-.02,2.83.33,2.8,2.47-.11,6.51-.09,13.02-.05,19.52,0,1.46-.55,1.97-1.97,1.97-12-.04-24-.05-36-.03-1.41,0-1.97-.46-1.97-1.93.06-6.61.07-13.22,0-19.83-.02-1.84.79-2.18,2.41-2.16Zm-2.41,35.81c-.04-1.71.36-2.69,2.31-2.68,11.89.04,23.78.04,35.67.02,1.47,0,1.96.69,1.95,2.05,0,4.68-.02,9.35.04,14.03.02,1.83-1.08,1.86-2.41,1.86l-34.76-.02c-2.01.02-2.9-.54-2.81-2.76.16-4.16.09-8.34,0-12.5Zm39.76,109.78c9.93-6.34,19.83-12.73,29.71-19.15.99-.64,1.63-.32,2.44.21,1.53,1.01,3.08,1.97,4.65,2.91,2.76,1.65,5.15,1.26,6.64-1.05,1.51-2.32.77-4.99-1.94-6.74-8.54-5.49-17.11-10.94-25.65-16.43-10.24-6.57-20.46-13.16-31.02-19.96,2.2-.9,4.2-.25,6.08-.55,7.32-1.17,13.2,1.76,19.17,5.65,26.71,17.41,53.62,34.52,80.46,51.73,2.83,1.81,3.82,4.49,2.49,6.88-1.44,2.56-4.18,3-7.38.97-7.72-4.88-15.4-9.84-23.1-14.78-.77-.5-1.52-1.02-2.32-1.46-2.5-1.37-5.02-.8-6.4,1.39-1.37,2.19-.81,4.76,1.56,6.37,2.5,1.7,5.11,3.25,8.13,5.17-10.72,6.9-21.06,13.52-31.37,20.19-1.17.76-2.06.34-3.06-.29-9.66-6.19-19.33-12.37-29.01-18.53-1.38-.87-1.73-1.49-.09-2.54Zm-28.63,5.91c-3.18-2.05-4.18-4.59-2.76-7.02,1.54-2.64,4.24-2.98,7.66-.8,17.96,11.48,35.88,23,53.83,34.51,15.29,9.8,30.58,19.6,45.87,29.42.73.47,1.68.76,2.32,2.23-5.28,0-10.13,0-14.97,0-1.08,0-1.91-.58-2.76-1.13-29.73-19.07-59.45-38.14-89.17-57.2Zm72.67,58.15h-26.18c-.1-.23-.19-.46-.29-.69,4.22-2.7,8.43-5.41,12.68-8.07.27-.17.85-.15,1.13.02,4.31,2.72,8.6,5.47,12.65,8.73Zm-101.65,84.63c-15.32,0-27.63-12.25-27.75-27.61-.11-14.78,12.47-27.32,27.42-27.34,15.29-.02,27.43,12.13,27.45,27.45.02,15.08-12.23,27.49-27.13,27.5Zm169.05-64.32c-.96,1.79-4,1.28-6.09,1.97-16.47,5.4-27.2,21.54-25.26,38.64.31,2.7-.57,2.85-2.63,2.8-3.66-.1-7.32-.03-10.99-.03-27.66,0-55.33,0-82.99,0-5,0-4.94,0-4.85-4.92.31-16.17-7.03-27.7-21.37-34.91-2.64-1.32-5.46-2.23-8.37-2.63-1.75-.24-2.23-.98-2.1-2.58.21-2.92-1.18-6.66.5-8.57,1.75-1.97,5.57-.66,8.47-.67,24.61-.06,49.23-.03,73.84-.03,26.03,0,52.07,0,78.11,0q4.18,0,4.13,4.06c-.03,2.33.6,5.04-.38,6.88Z"/>
      <path d="m206.41,232.22q.06-4.05-4.13-4.06c-26.03,0-52.07,0-78.11,0-24.61,0-49.23-.02-73.84.03-2.9,0-6.72-1.3-8.47.67-1.68,1.91-.29,5.65-.5,8.57-.12,1.6.35,2.33,2.1,2.58,2.9.41,5.73,1.31,8.37,2.63,14.34,7.21,21.68,18.73,21.37,34.91-.09,4.91-.15,4.92,4.85,4.92,27.66,0,55.33,0,82.99,0,3.66,0,7.32-.07,10.99.03,2.06.05,2.94-.1,2.63-2.8-1.94-17.1,8.78-33.24,25.26-38.64,2.09-.69,5.13-.18,6.09-1.97.99-1.84.35-4.54.38-6.88Zm-66.69,24.86c-5.28.07-10.58.02-15.86.02s-10.37.04-15.56-.02c-2.94-.02-5.12-1.99-5.13-4.46,0-2.32,2.05-4.54,4.82-4.57,10.68-.11,21.36-.12,32.03,0,2.86.03,4.65,2.18,4.59,4.7-.07,2.5-1.94,4.27-4.89,4.31Z"/>
      <path d="m210.95,260.33c-8.47.08-15.58,7.2-15.54,15.56.02,8.42,7.12,15.58,15.49,15.64,8.67.08,15.78-6.96,15.75-15.57-.03-8.69-7.09-15.72-15.69-15.63Zm.09,22.04c-3.51-.07-6.38-2.94-6.39-6.4-.02-3.59,3.04-6.57,6.64-6.46,3.52.1,6.15,2.91,6.11,6.53-.04,3.56-2.9,6.4-6.35,6.33Z"/>
      <path d="m36.82,260.3c-8.45-.11-15.49,6.86-15.59,15.41-.11,8.69,6.89,15.85,15.45,15.85,8.5,0,15.6-6.98,15.71-15.41.11-8.58-6.93-15.75-15.58-15.85Zm.02,22.09c-3.52.06-6.39-2.72-6.44-6.26-.05-3.79,2.72-6.65,6.39-6.61,3.43.03,6.48,3.07,6.45,6.39-.04,3.43-2.98,6.42-6.39,6.48Z"/>
    </g>
  </g>
</svg>