<?xml version="1.0" encoding="UTF-8"?>
<svg id="Layer_2" data-name="Layer 2" xmlns="http://www.w3.org/2000/svg" viewBox="0 0 383.19 287.59">
  <g id="Layer_1-2" data-name="Layer 1">
    <g>
      <path d="m0,91.39c1.53-1.01,1.36-2.86,2.04-4.29,2.65-5.53,6.79-9.5,12.31-12.01C65.52,51.77,116.67,28.41,167.89,5.19c16.93-7.68,33.81-6.46,50.49,1.17,49.96,22.86,99.94,45.68,149.9,68.53,9.48,4.34,14.84,11.64,14.91,22.17.08,10.74-5.43,18.07-15.03,22.46-31.9,14.6-63.81,29.19-95.72,43.76-19.35,8.83-38.62,17.85-58.13,26.33-15.49,6.73-31.34,6.44-46.69-.49-36.84-16.61-73.55-33.52-110.31-50.31-12.44-5.68-24.75-11.7-37.38-16.94-9.6-3.99-17.01-9.61-19.91-20v-10.48Z"/>
      <path d="m311.28,171.81c0,19.28,1.1,38.19-.3,56.9-1.5,20.07-13.84,33.14-32.18,40.84-17.23,7.24-35,12.62-53.46,15.45-19.15,2.94-38.37,3.41-57.7,1.2-22.6-2.58-44.14-8.71-65.08-17.47-18.47-7.73-31.13-25.85-30.73-46.16.3-15.71.15-31.43-.02-47.14-.04-3.64,1-3.5,3.76-2.22,27.31,12.63,54.55,25.41,82.05,37.62,23.87,10.6,47.77,9.48,71.41-1.45,26.64-12.32,53.38-24.45,80.07-36.66.55-.25,1.11-.47,2.17-.92Z"/>
      <path d="m359.3,149.78c0,1.67,0,2.77,0,3.87,0,24.3,0,48.6,0,72.89,0,7.65-4.85,12.78-11.82,13.09-5.96.26-12.35-5.65-12.23-13.18.33-20.8.15-41.62.05-62.43-.01-2.47.66-3.67,3.03-4.67,6.94-2.94,13.73-6.24,20.97-9.58Z"/>
    </g>
  </g>
</svg>