<?xml version="1.0" encoding="UTF-8"?>
<svg id="Layer_2" data-name="Layer 2" xmlns="http://www.w3.org/2000/svg" viewBox="0 0 205.88 228.88">
  <g id="Layer_1-2" data-name="Layer 1">
    <g>
      <path d="m16.3,124.85c-2.14,7.59-5.76,14.72-11.23,20.41-9.16,9.57-5.73,20.76,8.78,26.84,16.21,6.79,27.59,21.46,31.63,38.56,3.38,14.25,10.77,20.43,20.29,17.51,9.19-2.81,18.32-5.8,27.55-8.46,7.52-2.17,13.43-5.49,15.97-15.49,1.55-6.08,4.38-11.8,8.76-16.3,6.03-6.19,8.04-12.6,4.48-18.88-1.11-1.96-2.71-3.65-4.16-5.39-.73-.87-.79-1.37.07-2.3,3.32-3.59,4.41-7.85,3.13-12.63-.78-2.87-2.79-4.97-4.61-7.2-1.81-2.21-2.04-2.02-.5-3.27l-.17-.21c-1.11-1.35-.91-3.34.45-4.45l31.27-25.43c2.83-2.3,3.26-6.47.96-9.3l-3.73-4.59c-2.3-2.83-6.47-3.26-9.3-.96l-31.39,25.52c-1.34,1.09-3.31.89-4.42-.44-.95.78-1.51.61-2.16-.19l-.1-.13c-1.14-1.49-2.32-2.95-3.57-4.34-3.29-3.71-9-5.02-13.61-3.43-1.45.51-2.79,2.25-4.22,1.53-1.32-.66-2.12-2.35-3.15-3.58-.13-.15-.25-.31-.38-.46-3.84-4.58-8.68-6.07-14.37-4.33-10.73,3.28-21.4,6.7-32.12,9.99-5.21,1.6-8.46,5.33-10.15,11.38Zm67.77,54.52c4.99-1.89,10.01-3.73,14.96-5.73,1.3-.53,2.75-.03,3.54,1.13,1.05,1.57,2.46,2.9,3.52,4.45.6.87,1.27,1.69,2.03,2.43,1.42,1.38,1.19,1.86-.28,2.41-10.42,3.89-20.81,7.85-31.22,11.77-5.4,2.04-10.83,4.01-16.22,6.08-.99.38-2.09.06-2.73-.77-1.91-2.5-3.88-4.96-5.95-7.32-1.26-1.45-.79-2,.78-2.58,10.54-3.92,21.05-7.9,31.57-11.87Zm-27.61-18.23c8.33-3.15,16.68-6.27,24.99-9.46,1.31-.5,2.18-.47,3.01.8,1,1.52,2.33,2.82,3.42,4.28.8,1.06,1.63,2.09,2.53,3.07,1.05,1.14,1.23,1.69-.4,2.3-9.91,3.69-19.79,7.48-29.7,11.24-5.78,2.19-11.59,4.34-17.37,6.58-1.37.53-2.27.48-3.23-.87-1.83-2.56-3.89-4.95-5.95-7.33-1.08-1.25-.71-1.73.68-2.25,7.35-2.76,14.68-5.57,22.02-8.36Zm-40.18-13.43c15.94-5.99,31.87-12.01,47.79-18.06,1.03-.38,1.66-.33,2.34.64.96,1.36,2.08,2.61,3.14,3.91.69.85,1.37,1.71,2.07,2.57.4.5.81.99,1.23,1.47.9,1.03.89,1.45-.57,1.99-11.91,4.43-23.77,8.98-35.65,13.48-3.99,1.51-7.99,2.96-11.96,4.49-1.09.41-1.82.42-2.64-1.03-1.48-2.59-3.48-4.83-5.6-6.94-1.67-1.65-1.51-2.03-.15-2.53Z"/>
      <path d="m142.23,168.44l-6.46,1.39s3.79-20.7,4.18-19.87,2.28,18.48,2.28,18.48Z"/>
      <polygon points="82.86 83.1 118.61 101 86.61 77.33 82.86 83.1"/>
      <polygon points="124.93 138.18 122.37 135.39 132.26 124.48 124.93 138.18"/>
      <polygon points="102.46 109.36 102.81 105.59 117.53 105.57 102.46 109.36"/>
      <path d="m123.94,100.29l12.1-9.84c3.41-2.77,8.41-2.25,11.18,1.15l4.49,5.52c2.77,3.41,2.25,8.41-1.15,11.18l-16.54,13.45,36.52,77.78,35.34-28.74L125.7,0l-35.35,28.75,33.59,71.54Zm48.84,48.81l-5.49,4.16-22.05-33.14,27.55,28.98Zm-51.67-96.79l5.19,39.46-11.95-38.15,6.76-1.31Z"/>
    </g>
  </g>
</svg>