<?xml version="1.0" encoding="UTF-8"?>
<svg id="Layer_2" data-name="Layer 2" xmlns="http://www.w3.org/2000/svg" viewBox="0 0 363.26 320.81">
  <g id="Layer_1-2" data-name="Layer 1">
    <path d="m361.61,216.81c-6.24-29.16-30.4-53.52-61.97-56.03-10.91-.88-21.88-1.13-32.82-1.78-3.91-.23-7.88.1-12.15-.97,6.78-12.03,13.36-23.77,20-35.48,2.56-4.53,5.18-5.18,9.87-2.53,12.73,7.14,25.45,14.3,38.15,21.48,1.74,1,3.52,1.8,5.5,2.26,8.67,2,17.21-2.34,20.38-10.47,3.07-7.86-.27-16.87-7.86-21.17-4.89-2.76-9.76-5.54-14.71-8.21-2.39-1.3-4.63-.68-6.35,1.36-1.83,2.17-1.93,4.52-.2,6.83.91,1.21,2.17,2.04,3.49,2.77,3.83,2.11,7.64,4.22,11.42,6.42,4.1,2.39,5.22,5.55,3.24,8.9-2,3.38-5.16,3.9-9.35,1.54-12.95-7.28-25.86-14.59-38.82-21.83-9.05-5.05-18.99-2.3-24.11,6.61-2.86,4.97-5.63,9.99-8.44,15q-2.55,4.54-6.92,1.72c-.43-.27-.86-.51-1.31-.74q-4.83-2.53-2.17-7.31c2.01-3.59,4-7.19,6.09-10.75,1.83-3.11,3.39-6.49,5.73-9.16,9.4-10.71,23.19-13.07,35.93-6.6,2.32,1.18,4.37,2.96,7.06,3.36,2.77.4,5.02-.41,6.1-3.1,1.09-2.73.49-5.17-2.19-6.76-1.94-1.15-3.9-2.23-5.87-3.31-11.72-6.36-25.37-6.24-36.6-.77.95-2.83,1.35-5.84,1.11-8.88-.6-7.63-4.05-13.77-10.41-18.15-2.8-1.93-5.51-3.97-7.79-6.52-10.88-12.22-21.76-24.43-32.65-36.62-3.08-3.45-6.06-7-9.74-9.88-12.25-9.62-30.51-10.75-43.68-2.63-15.62,9.61-22.45,28.49-16.3,45.91,3.74,10.61,10.97,18.2,21.32,22.76.73.33.94.11,1.22-.56,1.79-4.41,3.6-8.81,5.49-13.18.39-.9.07-1.08-.64-1.42-8.04-3.78-12.66-10.01-13.42-18.94-.91-10.63,6.53-20.98,17.11-23.17,8.49-1.75,15.91.42,21.77,6.73,8.33,8.98,16.36,18.24,24.54,27.36,4.94,5.52,9.88,11.04,14.87,16.5,2.64,2.89,5.9,5.03,9.04,7.31,4.24,3.08,4.04,9.19-.32,12.09-2.53,1.67-5.64,1.65-8.31-.21-3.33-2.33-6.72-4.55-10.49-6.13-.74-.32-1.47-.75-2.38-.8,1.64,6.46-.38,11.4-6.11,14.98,3.98,1.37,7.15,3.78,10.5,5.9,5.89,3.73,12.11,4.72,18.49,3.05-3.56,5.99-6.9,12.11-10.31,18.19-1.13,2.03-2.1,2.92-4.03.57-3.3-4.04-7.77-5.29-12.75-4.06-1.9.45-2.13-.14-2.64-1.74-2.22-6.94-9.73-11.4-16.79-9.8-2.4.55-3.32.02-4.42-2.06-5.4-10.12-16.82-12.56-25.08-5.49-1.7,1.46-3.14,3.16-4.37,5.06-1.31,2.02-2.29,2.78-4.07.02-5.88-9.1-12.29-17.86-18.11-26.98-8.95-13.99-20.23-25.09-35.95-31.26-9.5-3.75-19.31-5.51-29.49-4.99-3.17.16-5,2.19-5.29,5.28-.26,2.94,2.11,5.39,5.25,5.7.99.1,1.99.05,2.99.06,20.43.27,36.9,8.48,48.79,25.1,8.4,11.74,16.03,24.02,24.42,35.78,2.81,3.95,3.19,6.95.29,10.84-2.7,3.62-2.6,3.84-5.26.26-10.23-13.78-20.32-27.69-30.7-41.36-17.69-23.31-52.11-24.66-71.35-2.65-8.68,9.93-14.43,21.85-19.9,33.71-11.47,24.9,3.58,56.19,30.1,63.06,11.02,2.85,22.46,2.59,33.7,3.86,8.52.97,17.09,1.59,25.63,2.48,1.08.1,2.78-.39,3.11,1.22.58,2.88-4.97,8.84-7.92,8.7-14.18-.69-28.36-1.55-42.54-2.05-15.08-.52-28.04-5.85-39.16-15.96-17.56-15.99-23.74-42.66-14.85-64.81,3.77-9.42,9.56-17.77,14.34-26.66,6.13-11.41,15.02-20.01,26.64-25.77,3.41-1.7,4.59-4.65,3.22-7.66-1.33-2.93-4.64-4.07-7.97-2.45-10.22,4.99-18.92,11.87-25.65,21.13-6.61,9.11-11.28,19.37-17.01,29.01C3.59,106.68.89,116.26.16,126.48c-2.53,35.64,24.34,72.04,62.88,75.11,13.76,1.1,27.58,1.62,41.39,2.24,3.3.15,4.28.67,2.94,4.27-4.62,12.42,2.62,25.64,16.97,23.83,1.77-.22,2.65.31,3.5,1.9,3.47,6.57,9,9.8,16.48,9.29,1.87-.12,2.85.42,3.77,2.13,3.41,6.39,8.8,9.73,16.14,9.26,2.28-.15,3.31.67,4.25,2.63,1.64,3.45,4.11,6.22,7.86,7.56,7.58,2.7,15.61.32,21.34-6.59,1.79-2.16,2.68-2.41,4.37.17,6.68,10.2,13.64,20.2,20.35,30.37,8.12,12.29,18.53,21.79,32.49,26.92,26.63,9.77,51.09,5.91,73.26-11.92,4.28-3.44,7.4-7.97,11.17-11.9l18.73-33.25c.03-.48-.07-1.01.11-1.43,5.48-13.06,6.4-26.51,3.45-40.26ZM98.12,147.58c-9.85-1.21-19.74-2.29-29.57-3.72-8.91-1.29-13.19-10.12-8.86-17.95,3.86-6.97,7.75-13.94,11.8-20.8,4.1-6.94,14.05-8.02,19.06-1.79,12.15,15.11,24,30.44,35.96,45.69.31.38.47.87,1.08,2.08-10.29-1.23-19.88-2.35-29.47-3.51Zm30.31,69.1c-2.34,4.13-4.82,5.16-8.14,3.57-2.99-1.43-4.26-3.76-3.28-7.03.35-1.18.91-2.32,1.52-3.39,18.14-32.27,36.31-64.52,54.46-96.8.86-1.51,1.69-3.05,3.04-4.22,2.32-2,4.78-1.96,7.2-.33,2.47,1.66,3.28,4.01,2.19,6.84-.44,1.16-1.1,2.23-1.71,3.31l-27.34,48.55h-.03c-9.3,16.5-18.58,33.02-27.91,49.5Zm68.59-26.41h-.01c-9.06,16.06-18.11,32.14-27.18,48.21-.61,1.08-1.19,2.22-2.01,3.13-1.96,2.21-4.38,2.72-7.08,1.39-2.66-1.32-3.89-3.54-3.33-6.43.29-1.54,1.11-3.02,1.9-4.42,6.61-11.73,13.27-23.43,19.9-35.15.6-1.08,1.21-2.2,1.59-3.37.95-2.91-.03-5.19-2.74-6.53-2.74-1.37-5.24-.77-6.81,1.85-3.26,5.45-6.35,11.01-9.48,16.55-4.05,7.15-8.05,14.34-12.14,21.48-.73,1.29-1.6,2.54-2.61,3.6-2,2.08-4.46,2.15-6.85.85-2.42-1.3-3.69-3.47-2.99-6.22.47-1.79,1.29-3.51,2.2-5.13,18.02-32.06,36.07-64.1,54.12-96.15,1.51-2.7,3.26-5.06,6.78-5.06,2.36,0,4.01,1.23,5.11,3.2,1.55,2.78.42,5.29-.97,7.75-6.62,11.71-13.24,23.45-19.86,35.17-.61,1.09-1.24,2.17-1.77,3.29-1.34,2.81-.45,5.31,1.85,6.92,2.41,1.67,5.05,1.15,7.09-1.02.83-.9,1.44-2.03,2.04-3.11,5.74-10.22,11.46-20.45,17.18-30.67,1.03-1.85,2.05-3.71,3.15-5.52,2.77-4.55,5.99-5.79,9.45-3.7,3.22,1.95,3.67,5.47,1.19,9.87-9.23,16.41-18.48,32.81-27.72,49.22Zm128.6,55.02c-5.2,9.51-9.91,19.32-16.3,28.13-8.76,12.06-26.59,16.53-40.29,10.64-7.59-3.25-13.46-8.25-18.26-14.85-10.12-13.86-20.28-27.7-30.63-41.4-2.12-2.81-2.37-4.83-.44-7.83,3.61-5.64,3.43-5.76,7.71-.32,11.85,15.04,23.58,30.18,35.56,45.12,9.08,11.33,24.98,12.64,34.94,3.11.98-.93,1.87-2.03,2.54-3.18,2.4-4.1,4.69-8.24,7.02-12.37l.05.02c2.2-3.91,4.52-7.76,6.59-11.74,5.15-9.94,1.99-21.48-7.1-28.13-6.75-4.93-14.56-5.4-22.31-6.36-16.54-2.08-33.07-4.14-49.64-5.99-3.55-.39-3.15-1.36-1.97-4.07,2.15-5.03,5.09-6.61,10.81-5.93,16.91,2.02,33.94,3.08,50.89,4.81,20.09,2.05,34.61,17.76,34.25,36.71-.09,4.8-1.16,9.47-3.42,13.63Zm-89.59-33.21c1.81-.6,3.39-.33,4.94-.15,17.14,2.08,34.29,4.16,51.42,6.29,4.47.55,8.38,2.24,11.05,6.12,2.48,3.61,2.86,7.32.67,11.21-3.85,6.84-8.07,13.5-11.44,20.57-4.81,10.07-15.91,7.97-20.91,1.84-6.83-8.37-13.46-16.92-20.1-25.45-5.22-6.72-10.87-13.13-15.63-20.43Zm-39.8-144.2c.15.8.03,1.56-.29,2.31-1.85,4.43-3.67,8.88-5.53,13.31-.82,1.96-2.18,2.5-4.17,1.7-4.87-1.95-9.73-3.91-14.59-5.88-2.17-.88-2.72-2.11-1.85-4.28,1.8-4.5,3.64-8.99,5.48-13.47.72-1.76,2.06-2.33,3.85-1.65,5.15,1.95,10.29,3.94,15.44,5.91.95.36,1.47,1.08,1.66,2.05Zm16.35,23.7c-1.38.36-2.85.09-4.26-.46-4.48-1.74-8.93-3.54-13.41-5.26-.78-.3-.77-.66-.51-1.28,1.84-4.39,3.68-8.78,5.49-13.18.25-.61.51-.74,1.16-.48,4.5,1.8,9.04,3.51,13.52,5.35,3.33,1.36,5.25,4.83,4.83,8.44-.41,3.5-3.07,6.22-6.82,6.88Zm-4.09-7.64c.25,1.43,1.47,2.32,2.87,2.08,1.34-.23,2.33-1.59,2.11-2.91-.22-1.3-1.61-2.28-2.94-2.07-1.38.22-2.27,1.5-2.03,2.9Z"/>
  </g>
</svg>