<?xml version="1.0" encoding="UTF-8"?>
<svg id="Layer_2" data-name="Layer 2" xmlns="http://www.w3.org/2000/svg" viewBox="0 0 233.68 233.68">
  <g id="Layer_1-2" data-name="Layer 1">
    <g>
      <g>
        <path d="m45.64,0c3.11,1.15,6.44,1.42,9.55,2.63,15.01,5.82,23.87,16.58,26.5,32.48.79,4.78.7,9.53-.44,14.23-.41,1.68.05,2.74,1.25,3.9,3.99,3.85,7.83,7.87,11.82,11.73,1.06,1.03,1,1.67.18,2.81-7.36,10.24-14.69,20.51-21.94,30.83-1.07,1.52-1.63,1.42-2.83.19-5.53-5.65-11.17-11.2-16.75-16.79-.84-.84-1.56-1.22-2.95-.93-20.16,4.17-39.47-6.11-47.16-24.94C1.43,52.6.94,48.84,0,45.18,0,41.84,0,38.49,0,35.14c.81-2.81,1.49-5.66,2.46-8.41,1.97-5.56,7.72-6.85,11.94-2.74,3.92,3.82,7.78,7.7,11.68,11.53,3.09,3.03,7.48,3.24,10.17.53,2.76-2.77,2.55-7.04-.51-10.13-3.8-3.83-7.63-7.63-11.41-11.48-4.41-4.48-3.15-10.06,2.8-12.16,2.62-.92,5.34-1.54,8.01-2.3h10.5Z"/>
        <path d="m187.58,233.68c-2.39-.61-4.85-1.05-7.18-1.85-15.99-5.49-25.49-16.58-28.43-33.24-.87-4.91-.68-9.82.47-14.68.31-1.29.12-2.2-.9-3.19-4.04-3.91-7.95-7.97-11.98-11.89-1.09-1.06-1.41-1.78-.39-3.19,7.45-10.27,14.82-20.59,22.14-30.95,1.01-1.42,1.53-1.07,2.52-.06,5.55,5.63,11.18,11.19,16.73,16.82.99,1.01,1.88,1.31,3.34,1.02,23.77-4.87,45.56,10.35,49.32,34.38.04.26.29.5.44.75v10.04c-.96,3.01-1.29,6.18-2.45,9.14-2.16,5.56-7.73,6.86-11.97,2.71-3.97-3.88-7.89-7.8-11.89-11.64-3.06-2.93-7.34-2.99-9.98-.27-2.69,2.77-2.47,6.85.56,9.95,3.72,3.8,7.46,7.58,11.19,11.38,4.65,4.74,3.28,10.32-3,12.54-2.93,1.04-6.01,1.4-8.98,2.24h-9.58Z"/>
      </g>
      <path d="m163.99,100.02c-1.43-2.7-3.76-3.8-6.76-3.73-2.58.06-5.17.01-7.76.01-2.97,0-5.93-.07-8.9.03-1.41.04-1.65-.45-1.39-1.72,2.44-11.85,4.85-23.7,7.24-35.56,1.54-7.62,3.07-15.23,4.53-22.87.54-2.85-.37-5.3-2.75-7-2.37-1.69-4.9-1.82-7.49-.36-1.45.82-2.31,2.18-3.23,3.47-15.9,22.24-31.78,44.49-47.68,66.74-6.36,8.9-12.72,17.8-19.09,26.69-1.81,2.53-2.57,5.15-.97,8.05,1.53,2.77,3.97,3.69,7.04,3.64,5.25-.09,10.49.01,15.74-.04,1.66-.02,2.16.65,1.84,2.21-1.85,9.15-3.65,18.31-5.5,27.46-2.04,10.11-4.14,20.2-6.18,30.31-.65,3.22.93,6.41,3.78,7.82,3.22,1.6,6.64.52,9.07-2.89,16.66-23.3,33.32-46.61,49.97-69.92,5.87-8.22,11.74-16.45,17.61-24.68,1.71-2.4,2.32-4.94.87-7.67Zm-46.98,51.72c-5.87,0-8.81-2.94-8.81-8.81s2.94-8.81,8.81-8.81,8.81,2.94,8.81,8.81-2.94,8.81-8.81,8.81Zm9.91-60.75l-6.16,35.78h-7.51l-6.16-35.78c-.1-.6-.15-1.2-.15-1.8,0-5.14,3.35-7.71,10.06-7.71s10.06,2.55,10.06,7.66c0,.7-.05,1.32-.15,1.85Z"/>
    </g>
  </g>
</svg>