<?xml version="1.0" encoding="UTF-8"?>
<svg id="Layer_2" data-name="Layer 2" xmlns="http://www.w3.org/2000/svg" viewBox="0 0 279.49 289.43">
  <g id="Layer_1-2" data-name="Layer 1">
    <g>
      <path d="m109.89,289.4c-18.58,0-37.16.02-55.75,0-6.8-.01-8.59-1.87-8.59-8.67-.01-16.46-.03-32.92-.03-49.39,0-7.11,1.68-8.79,8.76-8.84q7.88-.06,7.85-8.11c0-14.84-.02-29.68.03-44.52.02-5.3,3.99-8.51,8.53-6.89,3.07,1.1,4.21,3.48,4.19,6.74-.07,15.96-.03,31.93-.02,47.89q0,4.9,4.94,4.9c20.33,0,40.66-.08,60.98.1,3.55.03,4.41-1.11,4.38-4.45-.15-15.96-.11-31.93-.08-47.89,0-4.59,1.72-6.98,5.09-7.5,4.55-.7,7.66,2.16,7.68,7.31.05,15.96.18,31.93-.06,47.89-.06,3.91,1.04,4.85,4.78,4.63,9.57-.57,12.17.14,11.92,11.65-.34,15.71-.07,31.43-.08,47.14,0,6.1-1.92,8.04-8.03,8.05-18.83.03-37.66,0-56.49,0v-.03Z"/>
      <path d="m67.32,23.07c1.03,4.76,2.02,9.32,3.01,13.89,1.21,5.56,2.52,11.12,3.55,16.7.29,1.58,1.09,1.85,2.86,1.85,21.07-.04,42.14-.06,63.21.02,2.57,0,3.42-.74,3.79-2.61,1.92-9.52,3.96-19.02,6.01-28.52.53-2.48,2.01-.78,2.85-.22,12.08,7.99,20.16,17.97,23.99,30.04.09.28.1.58.12.87.35,4.5,2.02,7.56,9.14,6.95,3.21-.27,4.84,2.27,4.91,4.71.16,5.68.17,11.37.01,17.05-.09,3.11-2.9,5-7.25,5.07-4.86.07-9.72-.01-14.59-.01-44.38,0-88.77,0-133.15,0-7.14,0-9.1-1.56-9.1-7.15,0-4.41-.02-8.82,0-13.23.02-5.16,1.76-6.62,8.38-6.77,2.72-.06,4.2-.25,4.76-3.07,2.79-14.2,11.53-25.84,25.8-34.88.37-.23.86-.35,1.69-.68Z"/>
      <path d="m108.9,95.91c19.46,0,38.92,0,58.38,0,1.84,0,3.76-.44,3.62,2.65-1.26,28.32-12.37,51.69-35.73,68.15-18.63,13.12-39.91,11.59-57.88-3.53-17.53-14.75-27.29-33.89-30.17-56.57-.31-2.47-.39-4.97-.71-7.43-.35-2.68.79-3.32,3.35-3.31,19.71.1,39.42.05,59.13.04Z"/>
      <path d="m224.66,137.65c0-6.73-.16-13.47.08-20.19.1-2.91-.83-3.57-3.56-3.46-5.1.21-10.22.1-15.33.03-6.36-.08-9.18-4.89-6.06-10.38,12.91-22.72,25.85-45.43,38.79-68.13,2.17-3.8,5.02-5.38,8.1-4.31,3.73,1.3,4.79,4.27,4.76,7.99-.07,11.34-.05,22.68-.01,34.03.02,5.49-.75,4.84,5.05,4.88,5.11.04,10.26.39,15.32-.1,5.74-.56,9.85,4.9,6.46,10.8-12.23,21.24-24.21,42.63-36.28,63.97-1.65,2.92-3.29,5.86-4.94,8.79-2.3,4.08-5.07,5.64-8.34,4.69-3.16-.92-4.71-3.82-4.68-8.43.05-6.73.01-13.46.01-20.18.21,0,.42,0,.63,0Z"/>
      <path d="m33.92,289.23c-9.87,0-19.31.15-28.75-.08-3.19-.08-5.06-3.26-5.08-7.6-.04-9.85-.13-19.7.03-29.55.19-11.95-.72-23.93.58-35.86,2.63-23.99,19.45-44.15,42.64-51.04,2.01-.6,4.59-1.88,6.03-1.14,1.8.92-.12,3.52-.09,5.43.16,12.34,0,24.68.14,37.02.03,2.4-.64,3.43-2.95,4.13-8.66,2.63-13.61,9.24-13.65,18.27-.09,17.95-.05,35.9-.03,53.85,0,2.1-.1,4.23,1.1,6.57Z"/>
      <path d="m169.81,163.54c26.51,5.64,44.44,23.88,49.23,49.91.69,3.77.74,7.69.76,11.54.08,18.32.04,36.65.04,54.97,0,7.68-1.83,9.49-9.43,9.46-7.1-.02-14.21-.04-21.31,0-1.9,0-3.19-.06-2.25-2.65.53-1.45.32-3.2.32-4.81.01-17.45.02-34.9,0-52.35-.02-9.9-4.54-16.12-13.97-19.12-1.98-.63-2.68-1.53-2.6-3.65.19-4.6.06-9.22.06-13.83,0-4.86.04-9.72-.01-14.58-.05-4.82.4-9.67-.82-14.86Z"/>
      <path d="m108.73.01c8.1,0,16.21-.04,24.31.01,6.19.04,8.54,1.95,7.59,6.76-2.44,12.22-5.18,24.4-7.72,36.61-.35,1.68-1.26,2.14-3.4,2.12-13.84-.09-27.67-.09-41.51-.02-2.36.01-3.11-.54-3.49-2.4-2.52-12.32-5.24-24.61-7.9-36.91-.76-3.49,1.92-6.09,6.7-6.14,8.48-.09,16.95-.03,25.43-.03h0Z"/>
      <path d="m132.42,183.47c0,8.14-.03,16.2.02,24.27.01,1.71-.81,2.08-2.3,2.07-13.32-.05-26.64-.08-39.96-.04-1.96,0-2.57-.72-2.55-2.64.09-6.85.08-13.69,0-20.54-.02-1.86.55-2.6,2.38-1.9,13.83,5.26,27.49,4.29,41.03-1.13.32-.13.72-.05,1.38-.08Z"/>
    </g>
  </g>
</svg>